<?xml version="1.0" encoding="utf-8"?>
<!-- Generator: Adobe Illustrator 23.0.3, SVG Export Plug-In . SVG Version: 6.00 Build 0)  -->
<svg version="1.1" id="Calque_1" xmlns="http://www.w3.org/2000/svg" xmlns:xlink="http://www.w3.org/1999/xlink" x="0px" y="0px"
	 viewBox="0 0 595.28 841.89" style="enable-background:new 0 0 595.28 841.89;" xml:space="preserve">
<style type="text/css">
	.st0{fill:#004C45;}
	.st1{fill:#922C48;}
	.st2{fill:#221F20;}
</style>
<g>
	<g id="Groupe_23" transform="translate(0 106.388)">
		<path id="Tracé_3" class="st0" d="M107.56,422.34H91.57l-4.14,12.82l4.82,0.36v1.61H81.07v-1.61l4.32-0.36l16.89-50.44h1.6
			l17.46,50.44l4.71,0.36v1.61h-19.1v-1.61l4.82-0.36L107.56,422.34z M92.21,420.2l14.57-0.29l-7.14-21.91h-0.14L92.21,420.2z"/>
		<path id="Tracé_4" class="st0" d="M153.52,402.74v-1.47h9.78v1.47l-3.71,0.39l-11.96,34.35h-1.65l-14.32-34.35l-3.53-0.39v-1.47
			h16.89v1.47l-3.86,0.39l8.43,22.49h0.14l7.71-22.49L153.52,402.74z"/>
		<path id="Tracé_5" class="st0" d="M191.5,431.48c-1.69,4.15-5.77,6.82-10.25,6.71c-4.65,0.31-8.67-3.2-8.99-7.85
			c-0.02-0.32-0.02-0.64-0.01-0.96c0-5.68,4.64-11.53,15.92-11.53c1.04,0,2.14,0.03,3.32,0.14v-4.92c0-6.78-0.47-11.17-6.32-11.17
			c-3.11-0.17-6.05,1.41-7.6,4.11v0.14c0.36-0.07,0.73-0.11,1.11-0.11c2.13-0.1,3.94,1.55,4.04,3.68c0.01,0.25,0,0.5-0.04,0.75
			c0.02,2.4-1.9,4.37-4.3,4.39c-0.07,0-0.13,0-0.2,0c-2.5,0.01-4.53-2.01-4.54-4.51c0-0.09,0-0.18,0.01-0.28
			c0-5.82,6.36-9.85,12.78-9.85c12.14,0,13.82,6.07,13.82,15.85v19.24l3.68,0.36v1.47h-11.35l-1-5.64L191.5,431.48z M185.11,435.01
			c3.06,0,6.39-4.39,6.39-10.46v-4.93c-0.77-0.11-1.54-0.17-2.32-0.18c-7.75,0-8.28,6.75-8.28,9.18
			C180.9,432.23,182.25,435.01,185.11,435.01L185.11,435.01z"/>
		<path id="Tracé_6" class="st0" d="M227.89,406.42h0.14c2.34-3.84,6.5-6.19,11-6.21c3.64,0,10,1.4,10,11.85v23.24l3.64,0.36v1.47
			H236.6v-1.46l3.64-0.36v-24.27c0-7.39-3.64-7.6-4.89-7.6c-4.24,0-7.32,4.24-7.32,10.6v21.28l3.68,0.36v1.47h-16.1v-1.47l3.68-0.36
			v-31.24l-4.32,0.07l-0.07-1.47l7.46-0.79l5.04-1.32l0.64,1.04L227.89,406.42z"/>
		<path id="Tracé_7" class="st0" d="M271.06,393.06l5.03-1.32l0.68,1.04v8.5h7.82v1.54l-7.82,0.32v25.13
			c0,6.28,3.43,6.43,4.32,6.43c3.14,0,5.18-3.14,6.57-5.46l1.54,0.93c-1.39,2.29-4.53,8.03-11.1,8.03c-4.95,0-10.1-1.54-10.1-11.96
			v-23.09l-6.07-0.32v-1.54h6.07v-7.89L271.06,393.06z"/>
		<path id="Tracé_8" class="st0" d="M311.11,435.3l3.68,0.36v1.47h-16.1v-1.47l3.68-0.36v-31.16h-4.39v-1.47l7.46-0.79l5.03-1.32
			l0.64,1.04L311.11,435.3z M306.58,383.18c2.61-0.01,4.74,2.1,4.75,4.71c0.01,2.61-2.1,4.74-4.71,4.75
			c-2.61,0.01-4.74-2.1-4.75-4.71c0-0.01,0-0.02,0-0.03C301.86,385.29,303.97,383.18,306.58,383.18L306.58,383.18L306.58,383.18z"/>
		<path id="Tracé_9" class="st0" d="M375.78,424.34h0.14l12.42-36.2l-4.82-0.36v-1.6h11.39v1.6l-4.32,0.36l-16.97,49.69h-1.6
			L352,388.14l-5.39-0.36v-1.6h19.81v1.6l-4.86,0.36L375.78,424.34z"/>
		<path id="Tracé_10" class="st0" d="M416.87,435.3l3.68,0.36v1.47h-16.1v-1.47l3.68-0.36v-31.16h-4.39v-1.47l7.46-0.79l5.04-1.32
			l0.64,1.04L416.87,435.3z M412.33,383.18c2.61-0.01,4.74,2.1,4.75,4.71c0.01,2.61-2.1,4.74-4.71,4.75
			c-2.61,0.01-4.74-2.1-4.75-4.71c0-0.01,0-0.02,0-0.03C407.62,385.29,409.73,383.18,412.33,383.18z"/>
		<path id="Tracé_11" class="st0" d="M444.92,406.42h0.14c2.34-3.84,6.5-6.19,11-6.21c3.64,0,10,1.4,10,11.85v23.24l3.64,0.36v1.47
			h-16.06v-1.46l3.64-0.36v-24.27c0-7.39-3.64-7.6-4.89-7.6c-4.24,0-7.32,4.24-7.32,10.6v21.28l3.68,0.36v1.47h-16.1v-1.47
			l3.68-0.36v-31.24l-4.32,0.07l-0.07-1.47l7.46-0.79l5.04-1.32l0.64,1.04L444.92,406.42z"/>
		<path id="Tracé_12" class="st0" d="M514.21,419.2c0,10.53-6.5,18.99-16.17,18.99c-11.46,0-16.39-8.6-16.39-18.78
			c0-10.89,6.82-19.21,16.46-19.21C508.99,400.2,514.21,409.7,514.21,419.2z M505.07,419.41c0-11.03-1.61-17.6-7.18-17.6
			c-5.18,0-7.1,7.32-7.1,17.17c0,10.25,1.93,17.6,7.1,17.6C503.25,436.58,505.07,429.3,505.07,419.41L505.07,419.41z"/>
	</g>
	<g id="Groupe_24" transform="translate(32.915)">
		<path id="Tracé_13" class="st0" d="M226.42,381.93h-60.81l-15.74,48.73l18.32,1.36v6.11h-42.48v-6.11l16.42-1.36l64.2-191.79
			h6.11l66.37,191.79l17.91,1.36v6.11h-72.61v-6.11l18.32-1.36L226.42,381.93z M168.05,373.78l55.38-1.08l-27.14-83.34h-0.54
			L168.05,373.78z"/>
		<path id="Tracé_14" class="st1" d="M343.52,383.97h0.54l47.24-137.64l-18.32-1.35v-6.11h43.3v6.11l-16.43,1.35l-64.47,188.94
			h-6.11l-76.14-188.94l-20.5-1.35v-6.11h75.33v6.11l-18.46,1.35L343.52,383.97z"/>
	</g>
	<g id="Groupe_25" transform="translate(44.612 140.554)">
		<path id="Tracé_15" class="st2" d="M156.57,429.52v26.43h-0.44c-0.19,0.02-0.36-0.11-0.38-0.3c0-0.02,0-0.05,0-0.07l-0.11-3.22
			c-0.75,1.13-1.73,2.08-2.88,2.79c-1.12,0.68-2.4,1.03-3.7,1.02c-2.02,0.12-3.98-0.72-5.28-2.27c-1.38-2.03-2.03-4.48-1.85-6.93
			c-0.01-1.24,0.16-2.48,0.5-3.67c0.3-1.07,0.81-2.08,1.5-2.96c0.66-0.84,1.5-1.52,2.47-1.99c1.07-0.5,2.23-0.74,3.41-0.72
			c1.16-0.03,2.31,0.22,3.35,0.74c0.98,0.53,1.82,1.29,2.44,2.22v-11.08L156.57,429.52z M155.6,441.57
			c-0.61-1.02-1.47-1.87-2.5-2.46c-0.97-0.49-2.05-0.74-3.14-0.72c-1.07-0.03-2.12,0.2-3.09,0.65c-0.86,0.42-1.61,1.04-2.19,1.8
			c-0.61,0.81-1.05,1.74-1.31,2.72c-0.3,1.12-0.45,2.27-0.44,3.42c-0.17,2.24,0.39,4.48,1.62,6.36c1.15,1.41,2.91,2.18,4.72,2.07
			c1.25,0.01,2.47-0.36,3.52-1.04c1.14-0.75,2.1-1.73,2.83-2.88L155.6,441.57z"/>
		<path id="Tracé_16" class="st2" d="M180.02,453.74c-0.29,0.35-0.64,0.65-1.02,0.9c-0.47,0.31-0.98,0.57-1.51,0.78
			c-0.6,0.24-1.22,0.42-1.85,0.55c-0.67,0.14-1.35,0.21-2.04,0.21c-1.15,0.02-2.28-0.2-3.34-0.65c-0.98-0.43-1.85-1.07-2.54-1.89
			c-0.74-0.88-1.29-1.91-1.62-3.01c-0.4-1.32-0.59-2.69-0.57-4.06c-0.01-1.22,0.17-2.44,0.54-3.61c0.33-1.04,0.86-2,1.56-2.83
			c0.69-0.79,1.54-1.42,2.5-1.84c1.06-0.45,2.21-0.68,3.36-0.66c0.94-0.01,1.86,0.17,2.73,0.51c0.84,0.33,1.6,0.85,2.22,1.51
			c0.66,0.71,1.17,1.54,1.49,2.46c0.38,1.07,0.56,2.2,0.54,3.34c0,0.26-0.11,0.38-0.33,0.38h-13.65c-0.01,0.12-0.02,0.24-0.02,0.36
			v0.38c-0.02,1.29,0.15,2.57,0.51,3.8c0.29,1.01,0.78,1.94,1.44,2.76c0.61,0.73,1.38,1.31,2.26,1.69c0.93,0.4,1.94,0.59,2.95,0.58
			c0.85,0.02,1.69-0.09,2.5-0.32c0.61-0.18,1.21-0.41,1.77-0.71c0.39-0.2,0.76-0.44,1.11-0.71c0.14-0.14,0.31-0.25,0.5-0.32
			c0.09,0,0.18,0.04,0.24,0.11L180.02,453.74z M179.62,445.2c0.01-0.98-0.14-1.96-0.47-2.89c-0.28-0.79-0.71-1.52-1.28-2.15
			c-0.54-0.58-1.19-1.04-1.93-1.33c-0.77-0.31-1.59-0.47-2.41-0.47c-0.94-0.01-1.87,0.15-2.75,0.49c-0.79,0.31-1.5,0.78-2.09,1.38
			c-0.6,0.63-1.08,1.36-1.41,2.16c-0.37,0.9-0.61,1.85-0.71,2.82L179.62,445.2z"/>
		<path id="Tracé_17" class="st2" d="M190.19,441.44c0.75-1.13,1.73-2.08,2.88-2.79c1.11-0.68,2.4-1.03,3.7-1.01
			c2.02-0.11,3.97,0.72,5.27,2.27c1.39,2.03,2.04,4.47,1.85,6.93c0.01,1.24-0.16,2.48-0.5,3.68c-0.3,1.07-0.81,2.08-1.5,2.96
			c-0.66,0.84-1.51,1.52-2.47,1.99c-1.07,0.5-2.23,0.75-3.41,0.72c-2.33,0.11-4.53-1.03-5.79-2.98v9.28h-0.97v-24.54h0.46
			c0.18-0.02,0.35,0.11,0.37,0.3c0,0.02,0,0.05,0,0.07L190.19,441.44z M190.23,452.2c0.59,1.04,1.45,1.9,2.49,2.5
			c0.98,0.5,2.06,0.75,3.16,0.73c1.07,0.03,2.12-0.2,3.09-0.65c0.86-0.42,1.61-1.04,2.19-1.8c0.61-0.82,1.05-1.74,1.31-2.72
			c0.3-1.12,0.45-2.27,0.44-3.42c0.17-2.24-0.4-4.48-1.63-6.36c-1.15-1.41-2.9-2.18-4.71-2.07c-1.25-0.01-2.47,0.36-3.52,1.04
			c-1.14,0.75-2.1,1.74-2.83,2.89V452.2z"/>
		<path id="Tracé_18" class="st2" d="M226.41,437.93v18.02h-0.44c-0.22,0-0.35-0.12-0.38-0.37l-0.09-3.15
			c-0.81,1.12-1.83,2.06-3.02,2.77c-1.15,0.69-2.48,1.05-3.82,1.03c-0.9,0.02-1.79-0.14-2.62-0.47c-0.72-0.29-1.36-0.75-1.86-1.33
			c-0.52-0.62-0.9-1.34-1.11-2.12c-0.26-0.93-0.39-1.89-0.37-2.85v-11.53h0.97v11.53c-0.01,0.85,0.09,1.7,0.31,2.52
			c0.18,0.69,0.51,1.33,0.96,1.89c0.44,0.52,1,0.92,1.63,1.18c0.73,0.29,1.51,0.42,2.29,0.41c1.28,0.01,2.54-0.35,3.63-1.03
			c1.17-0.75,2.19-1.72,2.99-2.86v-13.65L226.41,437.93z"/>
		<path id="Tracé_19" class="st2" d="M238.42,431.42c0,0.16-0.04,0.33-0.11,0.47c-0.07,0.15-0.17,0.28-0.28,0.4
			c-0.12,0.11-0.25,0.21-0.4,0.27c-0.15,0.07-0.31,0.1-0.47,0.1c-0.33,0-0.66-0.13-0.89-0.37c-0.24-0.23-0.37-0.54-0.37-0.87
			c0.01-0.69,0.57-1.25,1.26-1.26c0.16,0,0.32,0.03,0.47,0.1c0.15,0.06,0.29,0.16,0.4,0.27c0.12,0.12,0.21,0.25,0.28,0.4
			C238.39,431.09,238.43,431.25,238.42,431.42z M237.64,437.93v18.02h-0.94v-18.02L237.64,437.93z"/>
		<path id="Tracé_20" class="st2" d="M257.53,439.78c-0.05,0.1-0.16,0.17-0.27,0.16c-0.18-0.03-0.34-0.11-0.47-0.24
			c-0.26-0.2-0.54-0.38-0.83-0.53c-0.42-0.22-0.87-0.4-1.32-0.53c-0.64-0.18-1.3-0.26-1.97-0.24c-0.67-0.01-1.33,0.1-1.97,0.32
			c-0.55,0.19-1.07,0.48-1.53,0.85c-0.41,0.34-0.75,0.76-0.99,1.24c-0.23,0.46-0.34,0.97-0.34,1.48c-0.02,0.55,0.14,1.09,0.45,1.54
			c0.31,0.43,0.72,0.79,1.18,1.05c0.53,0.3,1.08,0.55,1.66,0.73c0.62,0.21,1.25,0.41,1.9,0.6c0.65,0.2,1.28,0.42,1.9,0.65
			c0.59,0.22,1.15,0.51,1.66,0.86c0.48,0.33,0.88,0.76,1.18,1.26c0.32,0.56,0.47,1.2,0.45,1.85c0,0.73-0.13,1.45-0.4,2.12
			c-0.26,0.65-0.67,1.24-1.18,1.73c-0.55,0.51-1.2,0.91-1.9,1.16c-0.82,0.29-1.69,0.43-2.57,0.42c-0.59,0.01-1.18-0.05-1.76-0.15
			c-0.5-0.1-0.99-0.24-1.46-0.44c-0.44-0.19-0.86-0.42-1.26-0.69c-0.4-0.27-0.78-0.57-1.13-0.9l0.24-0.31
			c0.04-0.05,0.08-0.1,0.14-0.14c0.06-0.04,0.14-0.06,0.21-0.05c0.2,0.04,0.38,0.15,0.52,0.3c0.29,0.25,0.59,0.47,0.91,0.67
			c0.46,0.28,0.94,0.5,1.45,0.66c0.7,0.22,1.43,0.32,2.16,0.3c0.75,0.01,1.51-0.11,2.22-0.36c0.6-0.21,1.15-0.55,1.61-0.98
			c0.43-0.41,0.76-0.9,0.98-1.45c0.22-0.56,0.33-1.16,0.33-1.76c0.02-0.58-0.13-1.16-0.45-1.65c-0.31-0.45-0.71-0.83-1.18-1.11
			c-0.52-0.31-1.08-0.57-1.66-0.76c-0.62-0.21-1.26-0.41-1.9-0.61c-0.65-0.2-1.28-0.4-1.9-0.63c-0.59-0.21-1.15-0.49-1.67-0.84
			c-0.48-0.32-0.88-0.74-1.18-1.23c-0.32-0.56-0.47-1.19-0.45-1.83c0-0.61,0.14-1.22,0.41-1.76c0.28-0.58,0.67-1.09,1.16-1.5
			c0.53-0.45,1.14-0.8,1.8-1.03c0.76-0.27,1.55-0.4,2.36-0.38c0.94-0.02,1.88,0.13,2.78,0.44c0.84,0.32,1.62,0.79,2.29,1.39
			L257.53,439.78z"/>
		<path id="Tracé_21" class="st2" d="M295.67,455.2v0.75h-12.96v-0.75h6.11v-22.62c0-0.19,0-0.37,0.02-0.57
			c0.02-0.2,0.03-0.39,0.05-0.58l-6.27,5.63c-0.08,0.09-0.19,0.13-0.31,0.12c-0.11-0.02-0.2-0.07-0.27-0.16l-0.27-0.37l7.3-6.53h0.7
			v25.08L295.67,455.2z"/>
		<path id="Tracé_22" class="st2" d="M315.3,442.53c0.81,0.15,1.59,0.41,2.34,0.75c0.71,0.33,1.36,0.78,1.91,1.34
			c0.55,0.57,0.99,1.24,1.28,1.98c0.33,0.86,0.49,1.78,0.47,2.7c0.02,1-0.19,1.99-0.6,2.89c-0.39,0.85-0.97,1.59-1.69,2.19
			c-0.77,0.62-1.65,1.09-2.59,1.38c-2.16,0.65-4.46,0.65-6.61,0c-0.94-0.29-1.82-0.76-2.59-1.38c-0.72-0.59-1.3-1.34-1.69-2.19
			c-0.41-0.91-0.62-1.9-0.6-2.89c-0.01-0.92,0.15-1.84,0.47-2.7c0.29-0.74,0.73-1.41,1.28-1.98c0.55-0.56,1.2-1.01,1.91-1.34
			c0.75-0.34,1.53-0.6,2.34-0.75c-0.76-0.17-1.48-0.46-2.15-0.86c-0.61-0.36-1.14-0.82-1.59-1.36c-0.43-0.53-0.76-1.13-0.98-1.78
			c-0.22-0.68-0.34-1.4-0.33-2.12c0-0.86,0.16-1.72,0.5-2.52c0.32-0.78,0.8-1.48,1.41-2.05c0.66-0.61,1.43-1.08,2.28-1.38
			c1.97-0.67,4.11-0.67,6.09,0c0.84,0.3,1.62,0.78,2.28,1.38c0.61,0.58,1.09,1.28,1.41,2.05c0.33,0.8,0.5,1.65,0.49,2.52
			c0.01,0.72-0.1,1.44-0.33,2.12c-0.22,0.65-0.55,1.25-0.98,1.78c-0.45,0.54-0.99,1-1.59,1.36
			C316.78,442.07,316.06,442.36,315.3,442.53z M313.11,455.47c0.99,0.01,1.97-0.14,2.91-0.44c0.83-0.27,1.6-0.69,2.28-1.24
			c0.63-0.53,1.14-1.2,1.48-1.96c0.36-0.8,0.54-1.68,0.53-2.56c0.01-0.75-0.1-1.49-0.33-2.2c-0.2-0.6-0.5-1.16-0.89-1.66
			c-0.36-0.46-0.8-0.86-1.29-1.18c-0.48-0.31-0.99-0.57-1.53-0.76c-0.52-0.19-1.06-0.33-1.61-0.41c-1.03-0.16-2.08-0.16-3.11,0
			c-0.55,0.08-1.1,0.21-1.62,0.4c-0.54,0.19-1.05,0.45-1.53,0.76c-0.49,0.32-0.93,0.72-1.29,1.18c-0.39,0.5-0.69,1.06-0.89,1.66
			c-0.23,0.71-0.34,1.45-0.33,2.2c-0.01,0.88,0.17,1.76,0.53,2.56c0.34,0.75,0.85,1.42,1.48,1.96c0.67,0.55,1.45,0.98,2.28,1.24
			C311.14,455.33,312.12,455.48,313.11,455.47L313.11,455.47z M306.8,436.43c0,0.74,0.13,1.47,0.38,2.16
			c0.26,0.69,0.66,1.32,1.18,1.84c0.56,0.55,1.23,0.99,1.97,1.27c1.8,0.63,3.76,0.63,5.56,0c0.74-0.28,1.41-0.72,1.97-1.27
			c0.52-0.52,0.92-1.15,1.18-1.84c0.26-0.69,0.39-1.42,0.38-2.16c0.01-0.78-0.14-1.55-0.43-2.27c-0.28-0.68-0.71-1.3-1.24-1.81
			c-0.57-0.53-1.25-0.94-1.98-1.2c-1.72-0.58-3.58-0.58-5.3,0c-0.73,0.26-1.41,0.67-1.98,1.2c-0.54,0.51-0.96,1.12-1.24,1.81
			C306.95,434.88,306.8,435.65,306.8,436.43L306.8,436.43z"/>
		<path id="Tracé_23" class="st2" d="M347.11,443.1c0.04,1.97-0.21,3.94-0.73,5.85c-0.4,1.47-1.06,2.85-1.96,4.08
			c-0.77,1.02-1.76,1.84-2.91,2.39c-2.25,1.05-4.84,1.05-7.09,0c-1.15-0.55-2.15-1.38-2.91-2.39c-0.9-1.22-1.57-2.61-1.97-4.08
			c-0.96-3.84-0.96-7.85,0-11.69c0.4-1.48,1.06-2.87,1.97-4.11c0.76-1.03,1.76-1.85,2.91-2.41c2.25-1.05,4.84-1.05,7.09,0
			c1.15,0.56,2.14,1.39,2.91,2.41c0.9,1.24,1.56,2.63,1.96,4.11C346.9,439.16,347.14,441.13,347.11,443.1z M346.1,443.1
			c0.03-1.88-0.18-3.75-0.65-5.57c-0.35-1.38-0.95-2.68-1.76-3.84c-2.24-3.16-6.62-3.91-9.79-1.67c-0.65,0.46-1.21,1.03-1.67,1.67
			c-0.82,1.16-1.42,2.46-1.77,3.84c-0.88,3.66-0.88,7.47,0,11.13c0.35,1.37,0.95,2.67,1.77,3.82c0.67,0.93,1.56,1.69,2.59,2.2
			c3.1,1.53,6.85,0.6,8.87-2.2c0.82-1.15,1.42-2.45,1.76-3.82C345.92,446.85,346.14,444.98,346.1,443.1z"/>
		<path id="Tracé_24" class="st2" d="M366.36,445.15c0.47-0.68,0.89-1.3,1.27-1.86c0.37-0.53,0.7-1.08,0.99-1.65
			c-0.35,0.5-0.76,0.95-1.22,1.34c-0.47,0.39-0.98,0.72-1.53,1c-0.56,0.27-1.15,0.49-1.76,0.63c-0.62,0.15-1.25,0.22-1.89,0.22
			c-1.03,0.01-2.05-0.17-3.01-0.54c-1.75-0.68-3.14-2.06-3.81-3.82c-0.36-0.95-0.54-1.95-0.53-2.97c-0.01-1.03,0.2-2.06,0.61-3.01
			c0.39-0.9,0.96-1.71,1.68-2.38c0.73-0.68,1.59-1.22,2.53-1.57c1.02-0.39,2.09-0.58,3.18-0.57c1.03-0.01,2.05,0.18,3.01,0.57
			c0.9,0.36,1.71,0.91,2.38,1.6c0.69,0.72,1.22,1.57,1.57,2.51c0.39,1.04,0.59,2.14,0.57,3.25c0,0.61-0.07,1.21-0.22,1.8
			c-0.16,0.6-0.37,1.19-0.63,1.76c-0.3,0.63-0.64,1.25-1.01,1.84c-0.4,0.64-0.85,1.33-1.36,2.08l-6.98,10.34
			c-0.11,0.16-0.3,0.25-0.49,0.24h-0.86L366.36,445.15z M362.39,444.05c1.04,0.02,2.06-0.18,3.02-0.58
			c0.83-0.36,1.59-0.87,2.22-1.51c0.59-0.59,1.06-1.3,1.38-2.07c0.31-0.72,0.47-1.49,0.47-2.27c0.01-0.94-0.15-1.88-0.49-2.76
			c-0.61-1.62-1.87-2.92-3.47-3.58c-0.83-0.35-1.73-0.52-2.63-0.51c-0.97-0.01-1.93,0.15-2.85,0.47c-0.83,0.3-1.59,0.77-2.23,1.37
			c-0.62,0.6-1.12,1.32-1.44,2.12c-0.35,0.86-0.52,1.78-0.51,2.71c-0.02,0.94,0.14,1.87,0.47,2.75c0.29,0.78,0.75,1.48,1.33,2.07
			c0.58,0.58,1.29,1.03,2.06,1.32C360.57,443.9,361.47,444.06,362.39,444.05z"/>
	</g>
</g>
</svg>
