<?xml version="1.0" encoding="utf-8"?>
<!-- Generator: Adobe Illustrator 23.0.3, SVG Export Plug-In . SVG Version: 6.00 Build 0)  -->
<svg version="1.1" id="Calque_1" xmlns="http://www.w3.org/2000/svg" xmlns:xlink="http://www.w3.org/1999/xlink" x="0px" y="0px"
	 viewBox="0 0 841.89 595.28" style="enable-background:new 0 0 841.89 595.28;" xml:space="preserve">
<style type="text/css">
	.st0{fill:#B26473;}
	.st1{fill:#A65062;}
	.st2{fill:#922C48;}
	.st3{fill:#DCB4BA;}
	.st4{fill:#CA919A;}
</style>
<path class="st0" d="M196.9,544.76c0-138.46,113.89-250.7,254.37-250.7s254.37,112.24,254.37,250.7"/>
<polygon class="st1" points="520.26,251.23 497.27,286.3 545.56,286.3 "/>
<rect x="458.48" y="285.76" class="st0" width="39.66" height="55.31"/>
<polygon class="st2" points="497.87,286.3 435.82,286.3 435.82,251.23 520.26,251.23 "/>
<rect x="498.14" y="285.76" class="st1" width="47.41" height="83.73"/>
<rect x="288.91" y="232.08" class="st0" width="115.88" height="78.91"/>
<rect x="404.8" y="232.08" class="st1" width="55.84" height="88.18"/>
<path class="st3" d="M108.01,544.76c0-138.46,123.43-250.7,275.7-250.7s275.7,112.24,275.7,250.7"/>
<path class="st0" d="M274.49,530.73c0,0,121-88.62,76.48-132.73s0.35-108.26,0.35-108.26h32.39c0,0-44.47,68.2,23.11,100.97
	s-47.02,145.68-47.02,145.68h-85.31V530.73z"/>
<polygon class="st2" points="404.8,232.08 288.91,232.08 314.81,192.01 430.7,192.01 "/>
<polygon class="st1" points="460.64,232.08 425.57,232.08 404.8,232.08 419.03,210.07 430.7,192.01 444.73,211.17 "/>
<rect x="108.01" y="528.03" class="st2" width="617.76" height="16.73"/>
<path class="st2" d="M212.77,471.84v72.92H196.9v-72.92c0-3.68,2.99-6.67,6.69-6.67h2.5C209.78,465.17,212.77,468.16,212.77,471.84z
	"/>
<path class="st0" d="M212.77,504.96v-33.11c0-3.68-2.99-6.67-6.67-6.67h-2.5c-3.7,0-6.69,2.99-6.69,6.67v33.11h-18.73l4.26-87.95
	c0-12.85,10.42-23.27,23.27-23.27c12.85,0,23.27,10.42,23.27,23.27l4.65,87.95H212.77z"/>
<path class="st2" d="M212.77,471.84v33.11H196.9v-33.11c0-3.68,2.99-6.67,6.69-6.67h2.5C209.78,465.17,212.77,468.16,212.77,471.84z
	"/>
<path class="st2" d="M264.16,472.75v60.28h-13.11v-60.28c0-3.04,2.47-5.51,5.53-5.51h2.07C261.69,467.24,264.16,469.7,264.16,472.75
	z"/>
<path class="st0" d="M264.16,500.12v-27.37c0-3.04-2.47-5.51-5.51-5.51h-2.07c-3.06,0-5.53,2.47-5.53,5.51v27.37h-15.49l3.52-72.7
	c0-10.62,8.61-19.24,19.24-19.24c10.62,0,19.24,8.61,19.24,19.24l3.85,72.7H264.16z"/>
<path class="st2" d="M264.16,472.75v27.37h-13.11v-27.37c0-3.04,2.47-5.51,5.53-5.51h2.07C261.69,467.24,264.16,469.7,264.16,472.75
	z"/>
<path class="st2" d="M486.87,471.84v72.92H471v-72.92c0-3.68,2.99-6.67,6.69-6.67h2.5C483.88,465.17,486.87,468.16,486.87,471.84z"
	/>
<path class="st0" d="M486.87,504.96v-33.11c0-3.68-2.99-6.67-6.67-6.67h-2.5c-3.7,0-6.69,2.99-6.69,6.67v33.11h-18.73l4.26-87.95
	c0-12.85,10.42-23.27,23.27-23.27c12.85,0,23.27,10.42,23.27,23.27l4.65,87.95H486.87z"/>
<path class="st2" d="M486.87,471.84v33.11H471v-33.11c0-3.68,2.99-6.67,6.69-6.67h2.5C483.88,465.17,486.87,468.16,486.87,471.84z"
	/>
<path class="st2" d="M538.26,472.75v60.28h-13.11v-60.28c0-3.04,2.47-5.51,5.53-5.51h2.07C535.79,467.24,538.26,469.7,538.26,472.75
	z"/>
<path class="st0" d="M538.26,500.12v-27.37c0-3.04-2.47-5.51-5.51-5.51h-2.07c-3.06,0-5.53,2.47-5.53,5.51v27.37h-15.49l3.52-72.7
	c0-10.62,8.61-19.24,19.24-19.24c10.62,0,19.24,8.61,19.24,19.24l3.85,72.7H538.26z"/>
<path class="st2" d="M538.26,472.75v27.37h-13.11v-27.37c0-3.04,2.47-5.51,5.53-5.51h2.07C535.79,467.24,538.26,469.7,538.26,472.75
	z"/>
<path class="st2" d="M320.04,88.28h-63.39c-10.43,0-18.88-8.45-18.88-18.88v0c0-10.43,8.46-18.88,18.88-18.88h63.39
	c10.43,0,18.88,8.45,18.88,18.88v0C338.92,79.83,330.47,88.28,320.04,88.28z"/>
<path class="st0" d="M526.77,116.61H434.7c-10.43,0-18.88-8.45-18.88-18.88v0c0-10.43,8.45-18.88,18.88-18.88h92.07
	c10.43,0,18.88,8.45,18.88,18.88v0C545.66,108.16,537.2,116.61,526.77,116.61z"/>
<path class="st4" d="M573.71,150.6h-92.07c-10.43,0-18.88-8.45-18.88-18.88v0c0-10.43,8.45-18.88,18.88-18.88h92.07
	c10.43,0,18.88,8.45,18.88,18.88v0C592.6,142.15,584.14,150.6,573.71,150.6z"/>
</svg>
