<?xml version="1.0" encoding="utf-8"?>
<!-- Generator: Adobe Illustrator 24.0.1, SVG Export Plug-In . SVG Version: 6.00 Build 0)  -->
<svg version="1.1" id="Layer_1" xmlns="http://www.w3.org/2000/svg" xmlns:xlink="http://www.w3.org/1999/xlink" x="0px" y="0px"
	 viewBox="0 0 512 512" style="enable-background:new 0 0 512 512;" xml:space="preserve">
<style type="text/css">
	.st0{fill:#AD7136;}
	.st1{fill:#A34D64;}
	.st2{fill:#922C48;}
</style>
<g>
	<path class="st0" d="M274,76.5c-6.6-61.8-45.6-72.8-45.6-72.8l-29.7,22.6c0,0,48.3,17.5,55.2,74.2"/>
	<g>
		<circle class="st1" cx="192.2" cy="133.1" r="72.3"/>
		<path class="st2" d="M210.9,203c-6,1.6-12.2,2.4-18.7,2.4c-40,0-72.3-32.4-72.3-72.3c0-40,32.4-72.4,72.3-72.4
			c6.5,0,12.7,0.9,18.7,2.4c-30.9,8.2-53.7,36.4-53.7,69.9S180,194.8,210.9,203z"/>
		<circle class="st1" cx="315.6" cy="133.1" r="72.3"/>
		<path class="st2" d="M334.3,203c-6,1.6-12.2,2.4-18.7,2.4c-40,0-72.3-32.4-72.3-72.3c0-40,32.4-72.4,72.3-72.4
			c6.5,0,12.7,0.9,18.7,2.4c-30.9,8.2-53.7,36.4-53.7,69.9S303.4,194.8,334.3,203z"/>
	</g>
	<g>
		<circle class="st1" cx="253.9" cy="439.7" r="72.3"/>
		<path class="st2" d="M219,439.6c0,33.5,22.8,61.7,53.7,69.9c0,0-0.1,0-0.1,0c-5.9,1.6-12.2,2.4-18.6,2.4
			c-40,0-72.4-32.4-72.4-72.4c0-39.9,32.4-72.3,72.4-72.3c39.9,0,72.3,32.4,72.3,72.3C288.3,385.9,219,418.7,219,439.6z"/>
	</g>
	<g>
		<path class="st1" d="M265.6,335.6c0,33.5-22.8,61.7-53.8,69.9c-5.9,1.6-12.2,2.4-18.6,2.4c-40,0-72.4-32.4-72.4-72.4
			c0-39.9,32.4-72.3,72.4-72.3C233.2,263.2,265.6,295.6,265.6,335.6z"/>
		<path class="st2" d="M158.3,335.6c0,33.5,22.8,61.7,53.7,69.9c0,0-0.1,0-0.1,0c-5.9,1.6-12.2,2.4-18.6,2.4
			c-40,0-72.4-32.4-72.4-72.4c0-39.9,32.4-72.3,72.4-72.3c39.9,0,72.3,32.4,72.3,72.3C227.7,281.8,158.3,314.7,158.3,335.6z"/>
	</g>
	<g>
		<circle class="st1" cx="314.6" cy="335.6" r="72.3"/>
		<path class="st2" d="M279.6,335.6c0,33.5,22.8,61.7,53.7,69.9c0,0-0.1,0-0.1,0c-5.9,1.6-12.2,2.4-18.6,2.4
			c-40,0-72.4-32.4-72.4-72.4c0-39.9,32.4-72.3,72.4-72.3c39.9,0,72.3,32.4,72.3,72.3C349,281.8,279.6,314.7,279.6,335.6z"/>
	</g>
	<g>
		<circle class="st1" cx="132.7" cy="231.5" r="72.3"/>
		<path class="st2" d="M151.3,301.4c-6,1.6-12.2,2.4-18.7,2.4c-40,0-72.3-32.4-72.3-72.3c0-40,32.4-72.4,72.3-72.4
			c6.5,0,12.7,0.9,18.7,2.4c-30.9,8.2-53.7,36.4-53.7,69.9S120.4,293.2,151.3,301.4z"/>
	</g>
	<g>
		<circle class="st2" cx="253.9" cy="231.5" r="72.3"/>
	</g>
	<g>
		<circle class="st2" cx="375.2" cy="231.5" r="72.3"/>
	</g>
</g>
</svg>
