<?xml version="1.0" encoding="utf-8"?>
<!-- Generator: Adobe Illustrator 23.0.3, SVG Export Plug-In . SVG Version: 6.00 Build 0)  -->
<svg version="1.1" id="Capa_1" xmlns="http://www.w3.org/2000/svg" xmlns:xlink="http://www.w3.org/1999/xlink" x="0px" y="0px"
	 viewBox="0 0 20.75 20.75" style="enable-background:new 0 0 20.75 20.75;" xml:space="preserve">
<style type="text/css">
	.st0{fill:#922C48;}
</style>
<g>
	<path class="st0" d="M9.96,10.46c0-0.85-0.21-1.68-0.62-2.39L9.25,7.9H3.24L3.15,8.07c-0.4,0.71-0.62,1.54-0.62,2.39
		c0,2.18,1.39,3.99,3.19,4.29v5.09c-1.04,0.04-1.81,0.2-1.81,0.39c0,0.22,1.06,0.4,2.36,0.4c1.3,0,2.36-0.18,2.36-0.4
		c0-0.19-0.77-0.34-1.81-0.39v-5.1C8.59,14.43,9.96,12.63,9.96,10.46z M6.24,14.13c-1.68,0-3.05-1.64-3.05-3.67
		c0-0.67,0.15-1.32,0.44-1.9h5.22c0.29,0.57,0.44,1.22,0.44,1.9C9.3,12.49,7.93,14.13,6.24,14.13z M16.33,2.29h-2.64V0h2.64V2.29z
		 M16.33,5.13V3h-2.64v2.14c-1.12,0.5-1.9,1.62-1.9,2.93v2.09v6.67v3.92h6.43v-3.92v-6.67V8.06C18.22,6.76,17.44,5.64,16.33,5.13z
		 M17.65,17.52h-5.24v-6.29h5.24V17.52z M9.02,10.53c0,0-0.14,3.32-2.73,3.32s-2.94-3.32-2.94-3.32H9.02z"/>
</g>
</svg>
